<mxfile host="Electron" modified="2023-11-03T07:50:54.842Z" agent="Mozilla/5.0 (Windows NT 10.0; Win64; x64) AppleWebKit/537.36 (KHTML, like Gecko) draw.io/22.0.2 Chrome/114.0.5735.289 Electron/25.8.4 Safari/537.36" etag="r6h6u5o8EGoH9jK2Qtwu" version="22.0.2" type="device">
  <diagram name="Pagina-1" id="XP8n0wvqKGeYOqq6er0b">
    <mxGraphModel dx="793" dy="1786" grid="1" gridSize="10" guides="1" tooltips="1" connect="1" arrows="1" fold="1" page="1" pageScale="1" pageWidth="827" pageHeight="1169" math="0" shadow="0">
      <root>
        <mxCell id="0" />
        <mxCell id="1" parent="0" />
        <mxCell id="9ERdKGySnAA7b4JaaNLW-10" value="" style="rounded=0;whiteSpace=wrap;html=1;fillColor=none;fontColor=#333333;strokeColor=#666666;dashed=1;" parent="1" vertex="1">
          <mxGeometry x="30" y="-100" width="1330" height="710" as="geometry" />
        </mxCell>
        <mxCell id="6lSDsBVkvL-JrC0aNIBT-2" value="" style="shape=cube;whiteSpace=wrap;html=1;boundedLbl=1;backgroundOutline=1;darkOpacity=0.05;darkOpacity2=0.1;fillColor=#fff2cc;strokeColor=#d6b656;" parent="1" vertex="1">
          <mxGeometry x="100" y="130" width="230" height="400" as="geometry" />
        </mxCell>
        <mxCell id="6lSDsBVkvL-JrC0aNIBT-4" value="kube-proxy" style="rounded=0;whiteSpace=wrap;html=1;fillColor=#fad7ac;strokeColor=#b46504;fontFamily=Lucida Console;fontSize=13;" parent="1" vertex="1">
          <mxGeometry x="135" y="470" width="175" height="40" as="geometry" />
        </mxCell>
        <mxCell id="6lSDsBVkvL-JrC0aNIBT-5" value="Pod" style="rounded=0;whiteSpace=wrap;html=1;fillColor=#ffe6cc;strokeColor=#d79b00;fontStyle=2" parent="1" vertex="1">
          <mxGeometry x="150" y="170" width="65" height="60" as="geometry" />
        </mxCell>
        <mxCell id="6lSDsBVkvL-JrC0aNIBT-6" value="Pod&lt;br&gt;" style="rounded=0;whiteSpace=wrap;html=1;fillColor=#ffe6cc;strokeColor=#d79b00;fontStyle=2" parent="1" vertex="1">
          <mxGeometry x="230" y="170" width="65" height="60" as="geometry" />
        </mxCell>
        <mxCell id="6lSDsBVkvL-JrC0aNIBT-7" value="Pod" style="rounded=0;whiteSpace=wrap;html=1;fillColor=#ffe6cc;strokeColor=#d79b00;fontStyle=2" parent="1" vertex="1">
          <mxGeometry x="150" y="240" width="65" height="60" as="geometry" />
        </mxCell>
        <mxCell id="6lSDsBVkvL-JrC0aNIBT-8" value="Pod" style="rounded=0;whiteSpace=wrap;html=1;fillColor=#ffe6cc;strokeColor=#d79b00;fontStyle=2" parent="1" vertex="1">
          <mxGeometry x="230" y="240" width="65" height="60" as="geometry" />
        </mxCell>
        <mxCell id="6lSDsBVkvL-JrC0aNIBT-9" value="kubelet" style="rounded=0;whiteSpace=wrap;html=1;fillColor=#fad7ac;strokeColor=#b46504;fontFamily=Lucida Console;fontSize=13;" parent="1" vertex="1">
          <mxGeometry x="135" y="420" width="175" height="40" as="geometry" />
        </mxCell>
        <mxCell id="6lSDsBVkvL-JrC0aNIBT-10" value="container-runtime" style="rounded=0;whiteSpace=wrap;html=1;fillColor=#fad7ac;strokeColor=#b46504;fontFamily=Lucida Console;fontSize=13;" parent="1" vertex="1">
          <mxGeometry x="135" y="370" width="175" height="40" as="geometry" />
        </mxCell>
        <mxCell id="6lSDsBVkvL-JrC0aNIBT-11" value="" style="image;sketch=0;aspect=fixed;html=1;points=[];align=center;fontSize=12;image=img/lib/mscae/Docker.svg;" parent="1" vertex="1">
          <mxGeometry x="726.22" y="-270" width="97.56" height="80" as="geometry" />
        </mxCell>
        <mxCell id="6lSDsBVkvL-JrC0aNIBT-14" value="Dockerized Kubernetes Cluster (&lt;i&gt;Kind&lt;/i&gt;)" style="text;html=1;strokeColor=none;fillColor=none;align=center;verticalAlign=middle;whiteSpace=wrap;rounded=0;fontSize=26;" parent="1" vertex="1">
          <mxGeometry x="295" y="-30" width="470" height="30" as="geometry" />
        </mxCell>
        <mxCell id="6lSDsBVkvL-JrC0aNIBT-40" style="edgeStyle=orthogonalEdgeStyle;rounded=0;orthogonalLoop=1;jettySize=auto;html=1;entryX=0.5;entryY=0;entryDx=0;entryDy=0;" parent="1" source="6lSDsBVkvL-JrC0aNIBT-16" target="6lSDsBVkvL-JrC0aNIBT-37" edge="1">
          <mxGeometry relative="1" as="geometry" />
        </mxCell>
        <mxCell id="9ERdKGySnAA7b4JaaNLW-5" value="orchestra" style="edgeLabel;html=1;align=center;verticalAlign=middle;resizable=0;points=[];" parent="6lSDsBVkvL-JrC0aNIBT-40" vertex="1" connectable="0">
          <mxGeometry x="-0.566" y="-1" relative="1" as="geometry">
            <mxPoint x="172" y="-1" as="offset" />
          </mxGeometry>
        </mxCell>
        <mxCell id="6lSDsBVkvL-JrC0aNIBT-20" value="" style="shape=cube;whiteSpace=wrap;html=1;boundedLbl=1;backgroundOutline=1;darkOpacity=0.05;darkOpacity2=0.1;fillColor=#fff2cc;strokeColor=#d6b656;" parent="1" vertex="1">
          <mxGeometry x="400" y="130" width="230" height="400" as="geometry" />
        </mxCell>
        <mxCell id="6lSDsBVkvL-JrC0aNIBT-21" value="kube-proxy" style="rounded=0;whiteSpace=wrap;html=1;fillColor=#fad7ac;strokeColor=#b46504;fontFamily=Lucida Console;fontSize=13;" parent="1" vertex="1">
          <mxGeometry x="435" y="470" width="175" height="40" as="geometry" />
        </mxCell>
        <mxCell id="6lSDsBVkvL-JrC0aNIBT-22" value="Pod" style="rounded=0;whiteSpace=wrap;html=1;fillColor=#ffe6cc;strokeColor=#d79b00;fontStyle=2" parent="1" vertex="1">
          <mxGeometry x="450" y="170" width="65" height="60" as="geometry" />
        </mxCell>
        <mxCell id="6lSDsBVkvL-JrC0aNIBT-23" value="Pod&lt;br&gt;" style="rounded=0;whiteSpace=wrap;html=1;fillColor=#ffe6cc;strokeColor=#d79b00;fontStyle=2" parent="1" vertex="1">
          <mxGeometry x="530" y="170" width="65" height="60" as="geometry" />
        </mxCell>
        <mxCell id="6lSDsBVkvL-JrC0aNIBT-24" value="Pod" style="rounded=0;whiteSpace=wrap;html=1;fillColor=#ffe6cc;strokeColor=#d79b00;fontStyle=2" parent="1" vertex="1">
          <mxGeometry x="450" y="240" width="65" height="60" as="geometry" />
        </mxCell>
        <mxCell id="6lSDsBVkvL-JrC0aNIBT-25" value="Pod" style="rounded=0;whiteSpace=wrap;html=1;fillColor=#ffe6cc;strokeColor=#d79b00;fontStyle=2" parent="1" vertex="1">
          <mxGeometry x="530" y="240" width="65" height="60" as="geometry" />
        </mxCell>
        <mxCell id="6lSDsBVkvL-JrC0aNIBT-26" value="kubelet" style="rounded=0;whiteSpace=wrap;html=1;fillColor=#fad7ac;strokeColor=#b46504;fontFamily=Lucida Console;fontSize=13;" parent="1" vertex="1">
          <mxGeometry x="435" y="420" width="175" height="40" as="geometry" />
        </mxCell>
        <mxCell id="6lSDsBVkvL-JrC0aNIBT-27" value="container-runtime" style="rounded=0;whiteSpace=wrap;html=1;fillColor=#fad7ac;strokeColor=#b46504;fontFamily=Lucida Console;fontSize=13;" parent="1" vertex="1">
          <mxGeometry x="435" y="370" width="175" height="40" as="geometry" />
        </mxCell>
        <mxCell id="6lSDsBVkvL-JrC0aNIBT-29" value="" style="shape=cube;whiteSpace=wrap;html=1;boundedLbl=1;backgroundOutline=1;darkOpacity=0.05;darkOpacity2=0.1;fillColor=#fff2cc;strokeColor=#d6b656;" parent="1" vertex="1">
          <mxGeometry x="730" y="130" width="230" height="400" as="geometry" />
        </mxCell>
        <mxCell id="6lSDsBVkvL-JrC0aNIBT-30" value="kube-proxy" style="rounded=0;whiteSpace=wrap;html=1;fillColor=#fad7ac;strokeColor=#b46504;fontFamily=Lucida Console;fontSize=13;" parent="1" vertex="1">
          <mxGeometry x="765" y="470" width="175" height="40" as="geometry" />
        </mxCell>
        <mxCell id="6lSDsBVkvL-JrC0aNIBT-31" value="Pod" style="rounded=0;whiteSpace=wrap;html=1;fillColor=#ffe6cc;strokeColor=#d79b00;fontStyle=2" parent="1" vertex="1">
          <mxGeometry x="780" y="170" width="65" height="60" as="geometry" />
        </mxCell>
        <mxCell id="6lSDsBVkvL-JrC0aNIBT-32" value="Pod&lt;br&gt;" style="rounded=0;whiteSpace=wrap;html=1;fillColor=#ffe6cc;strokeColor=#d79b00;fontStyle=2" parent="1" vertex="1">
          <mxGeometry x="860" y="170" width="65" height="60" as="geometry" />
        </mxCell>
        <mxCell id="6lSDsBVkvL-JrC0aNIBT-33" value="Pod" style="rounded=0;whiteSpace=wrap;html=1;fillColor=#ffe6cc;strokeColor=#d79b00;fontStyle=2" parent="1" vertex="1">
          <mxGeometry x="780" y="240" width="65" height="60" as="geometry" />
        </mxCell>
        <mxCell id="6lSDsBVkvL-JrC0aNIBT-34" value="Pod" style="rounded=0;whiteSpace=wrap;html=1;fillColor=#ffe6cc;strokeColor=#d79b00;fontStyle=2" parent="1" vertex="1">
          <mxGeometry x="860" y="240" width="65" height="60" as="geometry" />
        </mxCell>
        <mxCell id="6lSDsBVkvL-JrC0aNIBT-35" value="kubelet" style="rounded=0;whiteSpace=wrap;html=1;fillColor=#fad7ac;strokeColor=#b46504;fontFamily=Lucida Console;fontSize=13;" parent="1" vertex="1">
          <mxGeometry x="765" y="420" width="175" height="40" as="geometry" />
        </mxCell>
        <mxCell id="6lSDsBVkvL-JrC0aNIBT-36" value="container-runtime" style="rounded=0;whiteSpace=wrap;html=1;fillColor=#fad7ac;strokeColor=#b46504;fontFamily=Lucida Console;fontSize=13;" parent="1" vertex="1">
          <mxGeometry x="765" y="370" width="175" height="40" as="geometry" />
        </mxCell>
        <mxCell id="6lSDsBVkvL-JrC0aNIBT-37" value="&lt;font style=&quot;font-size: 15px;&quot;&gt;Worker Node Container &lt;i&gt;n&lt;/i&gt;&lt;/font&gt;" style="swimlane;whiteSpace=wrap;html=1;startSize=30;fillColor=#d0cee2;strokeColor=#56517e;" parent="1" vertex="1">
          <mxGeometry x="710" y="90" width="270" height="460" as="geometry" />
        </mxCell>
        <mxCell id="6lSDsBVkvL-JrC0aNIBT-49" value="&lt;font style=&quot;font-size: 16px;&quot;&gt;&lt;font style=&quot;font-size: 16px;&quot;&gt;&lt;i&gt;n&lt;/i&gt;&lt;/font&gt; Kubernetes Nodes Containers&lt;/font&gt;" style="swimlane;whiteSpace=wrap;html=1;startSize=30;fillColor=#dae8fc;strokeColor=#6c8ebf;" parent="1" vertex="1">
          <mxGeometry x="50" y="-80" width="970" height="670" as="geometry" />
        </mxCell>
        <mxCell id="6lSDsBVkvL-JrC0aNIBT-80" value="oltre ai worker nodes, kind effettua il provisioning anche di un &lt;i&gt;control plane&lt;/i&gt; che usa la stessa docker image dei worker nodes" style="text;html=1;strokeColor=none;fillColor=none;align=center;verticalAlign=middle;whiteSpace=wrap;rounded=0;fontSize=13;" parent="6lSDsBVkvL-JrC0aNIBT-49" vertex="1">
          <mxGeometry x="20" y="635" width="930" height="30" as="geometry" />
        </mxCell>
        <mxCell id="6lSDsBVkvL-JrC0aNIBT-18" value="&lt;font style=&quot;font-size: 15px;&quot;&gt;Worker Node Container 1&lt;/font&gt;" style="swimlane;whiteSpace=wrap;html=1;startSize=30;fillColor=#d0cee2;strokeColor=#56517e;" parent="6lSDsBVkvL-JrC0aNIBT-49" vertex="1">
          <mxGeometry x="30" y="170" width="270" height="460" as="geometry" />
        </mxCell>
        <mxCell id="6lSDsBVkvL-JrC0aNIBT-28" value="&lt;font style=&quot;font-size: 15px;&quot;&gt;Worker Node Container 2&lt;/font&gt;" style="swimlane;whiteSpace=wrap;html=1;startSize=30;fillColor=#d0cee2;strokeColor=#56517e;" parent="6lSDsBVkvL-JrC0aNIBT-49" vertex="1">
          <mxGeometry x="330" y="170" width="270" height="460" as="geometry" />
        </mxCell>
        <mxCell id="6lSDsBVkvL-JrC0aNIBT-43" value="&lt;font style=&quot;font-size: 24px;&quot;&gt;&lt;b style=&quot;font-size: 24px;&quot;&gt;.&lt;br style=&quot;font-size: 24px;&quot;&gt;.&lt;br style=&quot;font-size: 24px;&quot;&gt;.&lt;/b&gt;&lt;/font&gt;" style="text;html=1;strokeColor=none;fillColor=none;align=center;verticalAlign=middle;whiteSpace=wrap;rounded=0;fontSize=24;" parent="6lSDsBVkvL-JrC0aNIBT-49" vertex="1">
          <mxGeometry x="610" y="385" width="40" height="30" as="geometry" />
        </mxCell>
        <mxCell id="6lSDsBVkvL-JrC0aNIBT-16" value="" style="image;sketch=0;aspect=fixed;html=1;points=[];align=center;fontSize=12;image=img/lib/mscae/Kubernetes.svg;" parent="6lSDsBVkvL-JrC0aNIBT-49" vertex="1">
          <mxGeometry x="440" y="90" width="50" height="48" as="geometry" />
        </mxCell>
        <mxCell id="6lSDsBVkvL-JrC0aNIBT-41" style="edgeStyle=orthogonalEdgeStyle;rounded=0;orthogonalLoop=1;jettySize=auto;html=1;entryX=0.5;entryY=0;entryDx=0;entryDy=0;" parent="6lSDsBVkvL-JrC0aNIBT-49" source="6lSDsBVkvL-JrC0aNIBT-16" target="6lSDsBVkvL-JrC0aNIBT-28" edge="1">
          <mxGeometry relative="1" as="geometry" />
        </mxCell>
        <mxCell id="9ERdKGySnAA7b4JaaNLW-7" value="orchestra" style="edgeLabel;html=1;align=center;verticalAlign=middle;resizable=0;points=[];" parent="6lSDsBVkvL-JrC0aNIBT-41" vertex="1" connectable="0">
          <mxGeometry x="-0.6319" y="-3" relative="1" as="geometry">
            <mxPoint x="3" y="3" as="offset" />
          </mxGeometry>
        </mxCell>
        <mxCell id="6lSDsBVkvL-JrC0aNIBT-39" style="edgeStyle=orthogonalEdgeStyle;rounded=0;orthogonalLoop=1;jettySize=auto;html=1;entryX=0.532;entryY=-0.005;entryDx=0;entryDy=0;entryPerimeter=0;" parent="6lSDsBVkvL-JrC0aNIBT-49" source="6lSDsBVkvL-JrC0aNIBT-16" target="6lSDsBVkvL-JrC0aNIBT-18" edge="1">
          <mxGeometry relative="1" as="geometry" />
        </mxCell>
        <mxCell id="9ERdKGySnAA7b4JaaNLW-6" value="orchestra" style="edgeLabel;html=1;align=center;verticalAlign=middle;resizable=0;points=[];" parent="6lSDsBVkvL-JrC0aNIBT-39" vertex="1" connectable="0">
          <mxGeometry x="-0.6564" y="-1" relative="1" as="geometry">
            <mxPoint x="-160" y="1" as="offset" />
          </mxGeometry>
        </mxCell>
        <mxCell id="6lSDsBVkvL-JrC0aNIBT-58" style="edgeStyle=orthogonalEdgeStyle;rounded=0;orthogonalLoop=1;jettySize=auto;html=1;entryX=1;entryY=0.5;entryDx=0;entryDy=0;" parent="1" source="6lSDsBVkvL-JrC0aNIBT-50" target="6lSDsBVkvL-JrC0aNIBT-32" edge="1">
          <mxGeometry relative="1" as="geometry">
            <mxPoint x="1010" y="210" as="targetPoint" />
            <Array as="points">
              <mxPoint x="1070" y="75" />
              <mxPoint x="1070" y="200" />
            </Array>
          </mxGeometry>
        </mxCell>
        <mxCell id="9ERdKGySnAA7b4JaaNLW-4" value="carica su" style="edgeLabel;html=1;align=center;verticalAlign=middle;resizable=0;points=[];" parent="6lSDsBVkvL-JrC0aNIBT-58" vertex="1" connectable="0">
          <mxGeometry x="0.2527" y="-1" relative="1" as="geometry">
            <mxPoint x="29" y="-69" as="offset" />
          </mxGeometry>
        </mxCell>
        <mxCell id="6lSDsBVkvL-JrC0aNIBT-50" value="1 Private &lt;br&gt;Docker Registry Container" style="swimlane;whiteSpace=wrap;html=1;startSize=60;fontSize=16;fillColor=#dae8fc;strokeColor=#6c8ebf;" parent="1" vertex="1">
          <mxGeometry x="1110" y="-80" width="230" height="290" as="geometry" />
        </mxCell>
        <mxCell id="6lSDsBVkvL-JrC0aNIBT-69" value="" style="editableCssRules=.*;html=1;shape=image;verticalLabelPosition=bottom;labelBackgroundColor=#ffffff;verticalAlign=top;aspect=fixed;imageAspect=0;image=data:image/svg+xml,PHN2ZyB4bWxucz0iaHR0cDovL3d3dy53My5vcmcvMjAwMC9zdmciIHhtbG5zOnY9Imh0dHBzOi8vdmVjdGEuaW8vbmFubyIgd2lkdGg9IjIxLjk5OTAwMDU0OTMxNjQwNiIgaGVpZ2h0PSIyMC4zOTM5OTkwOTk3MzE0NDUiIHZpZXdCb3g9IjAgMCAyMS45OTkwMDA1NDkzMTY0MDYgMjAuMzkzOTk5MDk5NzMxNDQ1Ij4mI3hhOwk8c3R5bGUgdHlwZT0idGV4dC9jc3MiPiYjeGE7CS5zdDB7ZmlsbDojNDI4NWY0O2ZpbGwtcnVsZTpldmVub2RkfSYjeGE7CTwvc3R5bGU+JiN4YTsJPHBhdGggY2xhc3M9InN0MCIgZD0iTTUgMHYyLjQ1OEwxLjk5OSA0LjE5N3YxMi4wMUw1IDE3LjkzOHYyLjQ1NmwtNS0yLjg4N1YyLjg4NnptMTIgMGw0Ljk5OSAyLjg4NnYxNC42MjFMMTcgMjAuMzk0di0yLjQ1NmwzLTEuNzMxVjQuMTk3bC0zLTEuNzM5em0tNi4wMTYgNi42NzNsMi45NDctMS42NDYtMi45NDctMS42NDYtMi45NDcgMS42NDZ6bTMuMjY4LTEuMDk2bC0yLjg3MSAxLjY3OHYzLjI4N2wyLjg3MS0xLjY3NnpNNy43NzMgOC44NjZsMi44NzEgMS42NzRWNy4yNTZMNy43NzMgNS41Nzd6bS0uMjEyIDMuODc4bDIuODItMS42NDYtMi44Mi0xLjY0Ni0yLjgyIDEuNjQ2em0zLjEzMi0xLjA5OGwtMi44NzEgMS42Nzh2My4yODdsMi44NzEtMS42NzZ6bS02LjI2NCAzLjI4OUw3LjMgMTYuNjA5di0zLjI4NWwtMi44NzEtMS42Nzl6bTEwLjAyOS0yLjE5MWwyLjgyLTEuNjQ2LTIuODItMS42NDYtMi44MiAxLjY0NnptMy4xMzItMS4wOThsLTIuODcxIDEuNjc4djMuMjg3bDIuODcxLTEuNjc2em0tNi4yNjQgMy4yODlsMi44NzEgMS42NzR2LTMuMjg1bC0yLjg3MS0xLjY3OXoiLz4mI3hhOzwvc3ZnPg==;" parent="6lSDsBVkvL-JrC0aNIBT-50" vertex="1">
          <mxGeometry x="30" y="94" width="173.33" height="156" as="geometry" />
        </mxCell>
        <mxCell id="6lSDsBVkvL-JrC0aNIBT-52" value="Docker Daemon Container Runtime" style="text;html=1;strokeColor=none;fillColor=none;align=center;verticalAlign=middle;whiteSpace=wrap;rounded=0;fontSize=29;" parent="1" vertex="1">
          <mxGeometry x="540" y="-170" width="470" height="30" as="geometry" />
        </mxCell>
        <mxCell id="6lSDsBVkvL-JrC0aNIBT-57" style="edgeStyle=orthogonalEdgeStyle;rounded=0;orthogonalLoop=1;jettySize=auto;html=1;entryX=0.5;entryY=1;entryDx=0;entryDy=0;" parent="1" source="6lSDsBVkvL-JrC0aNIBT-54" target="6lSDsBVkvL-JrC0aNIBT-50" edge="1">
          <mxGeometry relative="1" as="geometry" />
        </mxCell>
        <mxCell id="9ERdKGySnAA7b4JaaNLW-8" value="vengono caricati su" style="edgeLabel;html=1;align=center;verticalAlign=middle;resizable=0;points=[];" parent="6lSDsBVkvL-JrC0aNIBT-57" vertex="1" connectable="0">
          <mxGeometry x="-0.0367" y="-2" relative="1" as="geometry">
            <mxPoint as="offset" />
          </mxGeometry>
        </mxCell>
        <mxCell id="6lSDsBVkvL-JrC0aNIBT-54" value="&lt;i&gt;m &lt;/i&gt;MLOps Containers" style="swimlane;whiteSpace=wrap;html=1;startSize=60;fontSize=16;fillColor=#e1d5e7;strokeColor=#9673a6;" parent="1" vertex="1">
          <mxGeometry x="1110" y="310" width="230" height="260" as="geometry" />
        </mxCell>
        <mxCell id="6lSDsBVkvL-JrC0aNIBT-56" value="" style="image;aspect=fixed;html=1;points=[];align=center;fontSize=12;image=img/lib/azure2/compute/Container_Services_Deprecated.svg;" parent="6lSDsBVkvL-JrC0aNIBT-54" vertex="1">
          <mxGeometry x="27.160000000000082" y="85" width="175.67" height="155" as="geometry" />
        </mxCell>
        <mxCell id="6lSDsBVkvL-JrC0aNIBT-70" value="Sviluppatore" style="shape=umlActor;verticalLabelPosition=bottom;verticalAlign=top;html=1;outlineConnect=0;" parent="1" vertex="1">
          <mxGeometry x="1500" y="420" width="40" height="90" as="geometry" />
        </mxCell>
        <mxCell id="9ERdKGySnAA7b4JaaNLW-1" value="" style="curved=1;endArrow=classic;html=1;rounded=0;entryX=1.006;entryY=0.498;entryDx=0;entryDy=0;entryPerimeter=0;" parent="1" source="6lSDsBVkvL-JrC0aNIBT-70" target="6lSDsBVkvL-JrC0aNIBT-56" edge="1">
          <mxGeometry width="50" height="50" relative="1" as="geometry">
            <mxPoint x="1340" y="530" as="sourcePoint" />
            <mxPoint x="1390" y="480" as="targetPoint" />
            <Array as="points">
              <mxPoint x="1410" y="520" />
              <mxPoint x="1410" y="440" />
              <mxPoint x="1340" y="480" />
            </Array>
          </mxGeometry>
        </mxCell>
        <mxCell id="9ERdKGySnAA7b4JaaNLW-13" value="sviluppa" style="edgeLabel;html=1;align=center;verticalAlign=middle;resizable=0;points=[];" parent="9ERdKGySnAA7b4JaaNLW-1" vertex="1" connectable="0">
          <mxGeometry x="0.0996" y="3" relative="1" as="geometry">
            <mxPoint as="offset" />
          </mxGeometry>
        </mxCell>
        <mxCell id="9ERdKGySnAA7b4JaaNLW-12" style="edgeStyle=orthogonalEdgeStyle;rounded=0;orthogonalLoop=1;jettySize=auto;html=1;entryX=0.56;entryY=-0.006;entryDx=0;entryDy=0;entryPerimeter=0;" parent="1" source="6lSDsBVkvL-JrC0aNIBT-52" target="9ERdKGySnAA7b4JaaNLW-10" edge="1">
          <mxGeometry relative="1" as="geometry" />
        </mxCell>
        <mxCell id="sh_PrepWbjz4GVDoCADx-1" value="Esecuzione con&lt;br&gt;Hyperparameter Set&lt;br&gt;1" style="shape=cylinder3;whiteSpace=wrap;html=1;boundedLbl=1;backgroundOutline=1;size=15;fillColor=#b0e3e6;strokeColor=#0e8088;" parent="1" vertex="1">
          <mxGeometry x="330" y="820" width="120" height="190" as="geometry" />
        </mxCell>
        <mxCell id="sh_PrepWbjz4GVDoCADx-2" value="Esecuzione con&lt;br&gt;Hyperparameter Set&lt;br&gt;2" style="shape=cylinder3;whiteSpace=wrap;html=1;boundedLbl=1;backgroundOutline=1;size=15;fillColor=#b0e3e6;strokeColor=#0e8088;" parent="1" vertex="1">
          <mxGeometry x="480" y="820" width="120" height="190" as="geometry" />
        </mxCell>
        <mxCell id="sh_PrepWbjz4GVDoCADx-3" value="Esecuzione con&lt;br&gt;Hyperparameter Set&lt;br&gt;&lt;i&gt;n&lt;/i&gt;" style="shape=cylinder3;whiteSpace=wrap;html=1;boundedLbl=1;backgroundOutline=1;size=15;fillColor=#b0e3e6;strokeColor=#0e8088;" parent="1" vertex="1">
          <mxGeometry x="680" y="820" width="120" height="190" as="geometry" />
        </mxCell>
        <mxCell id="sh_PrepWbjz4GVDoCADx-4" value="GeneClassifier / Fusion Classifier - Distribuzione degli esperimenti" style="text;html=1;align=center;verticalAlign=middle;whiteSpace=wrap;rounded=0;fontSize=14;" parent="1" vertex="1">
          <mxGeometry x="337.5" y="770" width="450" height="30" as="geometry" />
        </mxCell>
        <mxCell id="sh_PrepWbjz4GVDoCADx-5" value="Nodo 1" style="shape=cube;whiteSpace=wrap;html=1;boundedLbl=1;backgroundOutline=1;darkOpacity=0.05;darkOpacity2=0.1;" parent="1" vertex="1">
          <mxGeometry x="360" y="1080" width="80" height="60" as="geometry" />
        </mxCell>
        <mxCell id="sh_PrepWbjz4GVDoCADx-6" value="Nodo 2" style="shape=cube;whiteSpace=wrap;html=1;boundedLbl=1;backgroundOutline=1;darkOpacity=0.05;darkOpacity2=0.1;" parent="1" vertex="1">
          <mxGeometry x="510" y="1080" width="80" height="60" as="geometry" />
        </mxCell>
        <mxCell id="sh_PrepWbjz4GVDoCADx-7" value="Nodo &lt;i&gt;m&lt;/i&gt;" style="shape=cube;whiteSpace=wrap;html=1;boundedLbl=1;backgroundOutline=1;darkOpacity=0.05;darkOpacity2=0.1;" parent="1" vertex="1">
          <mxGeometry x="710" y="1080" width="80" height="60" as="geometry" />
        </mxCell>
        <mxCell id="sh_PrepWbjz4GVDoCADx-8" style="edgeStyle=orthogonalEdgeStyle;rounded=0;orthogonalLoop=1;jettySize=auto;html=1;entryX=0;entryY=0;entryDx=30;entryDy=0;entryPerimeter=0;" parent="1" source="sh_PrepWbjz4GVDoCADx-1" target="sh_PrepWbjz4GVDoCADx-5" edge="1">
          <mxGeometry relative="1" as="geometry" />
        </mxCell>
        <mxCell id="sh_PrepWbjz4GVDoCADx-15" value="eseguito su" style="edgeLabel;html=1;align=center;verticalAlign=middle;resizable=0;points=[];" parent="sh_PrepWbjz4GVDoCADx-8" vertex="1" connectable="0">
          <mxGeometry x="-0.1567" relative="1" as="geometry">
            <mxPoint as="offset" />
          </mxGeometry>
        </mxCell>
        <mxCell id="sh_PrepWbjz4GVDoCADx-9" style="edgeStyle=orthogonalEdgeStyle;rounded=0;orthogonalLoop=1;jettySize=auto;html=1;entryX=0;entryY=0;entryDx=30;entryDy=0;entryPerimeter=0;" parent="1" source="sh_PrepWbjz4GVDoCADx-2" target="sh_PrepWbjz4GVDoCADx-6" edge="1">
          <mxGeometry relative="1" as="geometry" />
        </mxCell>
        <mxCell id="sh_PrepWbjz4GVDoCADx-10" style="edgeStyle=orthogonalEdgeStyle;rounded=0;orthogonalLoop=1;jettySize=auto;html=1;entryX=0;entryY=0;entryDx=80;entryDy=40;entryPerimeter=0;" parent="1" source="sh_PrepWbjz4GVDoCADx-2" target="sh_PrepWbjz4GVDoCADx-5" edge="1">
          <mxGeometry relative="1" as="geometry">
            <Array as="points">
              <mxPoint x="500" y="1120" />
            </Array>
          </mxGeometry>
        </mxCell>
        <mxCell id="sh_PrepWbjz4GVDoCADx-11" style="edgeStyle=orthogonalEdgeStyle;rounded=0;orthogonalLoop=1;jettySize=auto;html=1;entryX=0;entryY=0;entryDx=30;entryDy=0;entryPerimeter=0;" parent="1" source="sh_PrepWbjz4GVDoCADx-3" target="sh_PrepWbjz4GVDoCADx-7" edge="1">
          <mxGeometry relative="1" as="geometry" />
        </mxCell>
        <mxCell id="sh_PrepWbjz4GVDoCADx-13" style="edgeStyle=orthogonalEdgeStyle;rounded=0;orthogonalLoop=1;jettySize=auto;html=1;entryX=0;entryY=0;entryDx=80;entryDy=40;entryPerimeter=0;" parent="1" source="sh_PrepWbjz4GVDoCADx-3" target="sh_PrepWbjz4GVDoCADx-6" edge="1">
          <mxGeometry relative="1" as="geometry">
            <Array as="points">
              <mxPoint x="700" y="1120" />
            </Array>
          </mxGeometry>
        </mxCell>
        <mxCell id="sh_PrepWbjz4GVDoCADx-14" style="edgeStyle=orthogonalEdgeStyle;rounded=0;orthogonalLoop=1;jettySize=auto;html=1;entryX=0;entryY=0;entryDx=50;entryDy=60;entryPerimeter=0;" parent="1" source="sh_PrepWbjz4GVDoCADx-3" target="sh_PrepWbjz4GVDoCADx-5" edge="1">
          <mxGeometry relative="1" as="geometry">
            <Array as="points">
              <mxPoint x="840" y="915" />
              <mxPoint x="840" y="1160" />
              <mxPoint x="410" y="1160" />
            </Array>
          </mxGeometry>
        </mxCell>
        <mxCell id="sh_PrepWbjz4GVDoCADx-16" value="eseguito su" style="edgeLabel;html=1;align=center;verticalAlign=middle;resizable=0;points=[];" parent="1" vertex="1" connectable="0">
          <mxGeometry x="510" y="1039.995172413793" as="geometry">
            <mxPoint x="7" y="1" as="offset" />
          </mxGeometry>
        </mxCell>
        <mxCell id="sh_PrepWbjz4GVDoCADx-18" value="eseguito su" style="edgeLabel;html=1;align=center;verticalAlign=middle;resizable=0;points=[];" parent="1" vertex="1" connectable="0">
          <mxGeometry x="720" y="1039.995172413793" as="geometry" />
        </mxCell>
        <mxCell id="sh_PrepWbjz4GVDoCADx-19" value="eseguito su" style="edgeLabel;html=1;align=center;verticalAlign=middle;resizable=0;points=[];" parent="1" vertex="1" connectable="0">
          <mxGeometry x="845" y="939.9951724137931" as="geometry" />
        </mxCell>
        <mxCell id="sh_PrepWbjz4GVDoCADx-21" value="" style="curved=1;endArrow=classic;html=1;rounded=0;exitX=0;exitY=0.5;exitDx=0;exitDy=0;exitPerimeter=0;" parent="1" source="sh_PrepWbjz4GVDoCADx-1" edge="1">
          <mxGeometry width="50" height="50" relative="1" as="geometry">
            <mxPoint x="260" y="920" as="sourcePoint" />
            <mxPoint x="200" y="910" as="targetPoint" />
            <Array as="points">
              <mxPoint x="310" y="920" />
              <mxPoint x="260" y="870" />
            </Array>
          </mxGeometry>
        </mxCell>
        <mxCell id="sh_PrepWbjz4GVDoCADx-23" value="&lt;pre style=&quot;box-sizing: border-box; font-family: ui-monospace, SFMono-Regular, &amp;quot;SF Mono&amp;quot;, Menlo, Consolas, &amp;quot;Liberation Mono&amp;quot;, monospace; margin-top: 0px; margin-bottom: 0px; overflow-wrap: normal; padding: 16px; overflow: auto; line-height: 1.45; background-color: var(--bgColor-muted, var(--color-canvas-subtle)); border-radius: 6px; word-break: normal; text-align: start;&quot;&gt;&lt;font style=&quot;font-size: 10px;&quot;&gt;-epochs 1&lt;br/&gt;-len_read 150 \&lt;br&gt;-len_overlap 0 \&lt;br&gt;-len_kmer 6 \&lt;br&gt;-n_words 30 \&lt;br&gt;-batch 512 \&lt;br&gt;-tokenizer_selected dna_bert_n \&lt;br&gt;-model_selected dna_bert \&lt;br&gt;-hidden_size 768 \&lt;br&gt;-n_hidden_layers 7 \&lt;br&gt;-rnn lstm \&lt;br&gt;-n_rnn_layers 3 \&lt;br&gt;-n_attention_heads 1 \&lt;br&gt;-n_beams 1 \&lt;br&gt;-dropout 0.5&lt;/font&gt;&lt;/pre&gt;" style="text;html=1;align=center;verticalAlign=middle;resizable=0;points=[];autosize=1;strokeColor=none;fillColor=none;" parent="1" vertex="1">
          <mxGeometry x="67.5" y="830" width="230" height="310" as="geometry" />
        </mxCell>
        <mxCell id="sh_PrepWbjz4GVDoCADx-24" value="Hyperparameters" style="text;html=1;align=center;verticalAlign=middle;resizable=0;points=[];autosize=1;strokeColor=none;fillColor=none;" parent="1" vertex="1">
          <mxGeometry x="80" y="830" width="120" height="30" as="geometry" />
        </mxCell>
        <mxCell id="gdotZ8zfQNw6QkrApLv6-1" value="Prima" style="text;html=1;strokeColor=none;fillColor=none;align=center;verticalAlign=middle;whiteSpace=wrap;rounded=0;fontStyle=1;fontSize=16;" vertex="1" parent="1">
          <mxGeometry x="1167.5" y="870" width="105" height="30" as="geometry" />
        </mxCell>
        <mxCell id="gdotZ8zfQNw6QkrApLv6-4" style="edgeStyle=orthogonalEdgeStyle;rounded=0;orthogonalLoop=1;jettySize=auto;html=1;entryX=0.5;entryY=0;entryDx=0;entryDy=0;" edge="1" parent="1" source="gdotZ8zfQNw6QkrApLv6-2" target="gdotZ8zfQNw6QkrApLv6-3">
          <mxGeometry relative="1" as="geometry" />
        </mxCell>
        <mxCell id="gdotZ8zfQNw6QkrApLv6-2" value="Esegui un esperimento (&lt;i style=&quot;&quot;&gt;python train_gene_classifier.py&lt;/i&gt;) con un set di iperparametri &lt;i&gt;x&lt;/i&gt;" style="text;html=1;align=center;verticalAlign=middle;resizable=0;points=[];autosize=1;strokeColor=none;fillColor=none;" vertex="1" parent="1">
          <mxGeometry x="980" y="900" width="480" height="30" as="geometry" />
        </mxCell>
        <mxCell id="gdotZ8zfQNw6QkrApLv6-3" value="Attendi la fine dell&#39;esecuzione (I/O-blocking) e preleva i risultati della predizione&lt;br&gt;&lt;b&gt;[vincolo temporale]&lt;br&gt;&lt;/b&gt;&lt;br&gt;&lt;i&gt;oppure&lt;br&gt;&lt;br&gt;&lt;/i&gt;Definisci un pool di processi (multithreading) o CPU slices su cui eseguire concorrentemente più esecuzioni sulla macchina&lt;br&gt;&lt;b&gt;[vincolo computazionale - la scalabilità verticale è limitata, costosa e highly-constraint]&lt;/b&gt;" style="text;html=1;strokeColor=none;fillColor=none;align=center;verticalAlign=middle;whiteSpace=wrap;rounded=0;" vertex="1" parent="1">
          <mxGeometry x="990" y="960" width="460" height="180" as="geometry" />
        </mxCell>
        <mxCell id="gdotZ8zfQNw6QkrApLv6-5" value="&lt;b&gt;&lt;font style=&quot;font-size: 14px;&quot;&gt;Adesso&lt;/font&gt;&lt;/b&gt;" style="text;html=1;align=center;verticalAlign=middle;resizable=0;points=[];autosize=1;strokeColor=none;fillColor=none;" vertex="1" parent="1">
          <mxGeometry x="510" y="730" width="70" height="30" as="geometry" />
        </mxCell>
        <mxCell id="gdotZ8zfQNw6QkrApLv6-6" value="&lt;div style=&quot;font-size: 16px;&quot;&gt;To-do (istanza dell&#39;architettura: modello GeneClassifier)&lt;/div&gt;&lt;div style=&quot;font-size: 16px;&quot;&gt;&lt;ol&gt;&lt;li&gt;Vulnerability Assessment (CVEs, OWASP, Docker Scout)&lt;/li&gt;&lt;li&gt;Threat Model: immaginare un avversario che tenta di rompere l&#39;architettura&lt;/li&gt;&lt;li&gt;Supporto per GPU per lo sviluppo locale con Kind (non uff. supportato)&lt;/li&gt;&lt;li&gt;Parametrizzazione delle esecuzioni con diversi iperparametri&lt;/li&gt;&lt;/ol&gt;&lt;/div&gt;" style="text;html=1;strokeColor=none;fillColor=none;align=left;verticalAlign=middle;whiteSpace=wrap;rounded=0;fontSize=16;" vertex="1" parent="1">
          <mxGeometry x="220" y="1260" width="600" height="200" as="geometry" />
        </mxCell>
      </root>
    </mxGraphModel>
  </diagram>
</mxfile>
